<?xml version="1.0" encoding="UTF-8"?>
<svg id="Layer_2" data-name="Layer 2" xmlns="http://www.w3.org/2000/svg" viewBox="0 0 841.89 595.27">
  <defs>
    <style>
      .cls-1 {
        fill: #ebbab9;
      }

      .cls-2, .cls-3 {
        stroke: #cd2735;
        stroke-miterlimit: 10;
      }

      .cls-2, .cls-4 {
        fill: #cd2735;
      }

      .cls-3 {
        fill: none;
        stroke-linecap: round;
        stroke-width: 3px;
      }
    </style>
  </defs>
  <g id="Layer_1-2" data-name="Layer 1">
    <path class="cls-4" d="m841.89,350.98v244.29H0v-104.79c63.95-13.11,109.27-2.76,151.8,6.52,48.61,10.61,93.57,19.82,158.51-8.98,2.29-1.02,4.56-2.03,6.8-3.03,135.67-60.69,170.89-92.15,273.2-42.3,15.09,7.35,28.89,13.92,41.51,19.43,54.13,23.63,86.78,27.97,107.58-7.81,7.8-13.42,13.94-32.49,18.91-58.29,9.31-48.31,45.05-55.96,83.58-45.04Z"/>
    <path class="cls-1" d="m841.89,0v350.98c-38.53-10.92-74.27-3.27-83.58,45.04-4.97,25.8-11.11,44.87-18.91,58.29-20.8,35.78-53.45,31.44-107.58,7.81-12.62-5.51-26.42-12.08-41.51-19.43-102.31-49.85-137.53-18.39-273.2,42.3-2.24,1-4.51,2.01-6.8,3.03-64.94,28.8-109.9,19.59-158.51,8.98-42.53-9.28-87.85-19.63-151.8-6.52V0h841.89Z"/>
    <path class="cls-4" d="m248.98,150.75c-4.16,10.04-10.32,19.44-18.48,27.6-33.33,33.33-87.36,33.33-120.69,0-33.32-33.32-33.32-87.36,0-120.68,12-12,26.68-19.68,42.12-23.03-20.8,30.62-17.64,72.66,9.5,99.8,23.67,23.67,58.66,29.1,87.53,16.31Z"/>
    <path class="cls-2" d="m591.69,90.59l-4.75-8.61c-.26-.46-.72-.77-1.25-.82l-9.78-.97c-1.33-.13-1.93-1.73-1.02-2.7l6.72-7.18c.36-.39.51-.93.4-1.44l-2.1-9.6c-.28-1.3,1.05-2.37,2.25-1.8l8.9,4.17c.48.22,1.04.2,1.49-.07l8.48-4.97c1.15-.67,2.57.26,2.41,1.59l-1.22,9.75c-.07.53.13,1.05.53,1.4l7.35,6.53c1,.89.54,2.53-.76,2.78l-9.65,1.86c-.52.1-.96.45-1.17.93l-3.94,9c-.53,1.22-2.24,1.3-2.88.13Z"/>
    <path class="cls-4" d="m337.35,47.52l-9.75,1.23c-.53.07-.98.39-1.23.86l-4.52,8.73c-.61,1.18-2.32,1.15-2.88-.06l-4.18-8.9c-.23-.48-.67-.82-1.19-.9l-9.7-1.6c-1.31-.22-1.81-1.85-.84-2.76l7.17-6.73c.39-.36.57-.89.49-1.41l-1.48-9.72c-.2-1.32,1.2-2.29,2.36-1.65l8.61,4.74c.46.26,1.02.27,1.5.03l8.79-4.41c1.19-.6,2.55.43,2.3,1.74l-1.85,9.66c-.1.52.06,1.06.44,1.43l6.91,6.99c.94.95.38,2.56-.94,2.72Z"/>
    <path class="cls-4" d="m469.25,243.26l-7.76-6.03c-.42-.32-.97-.42-1.47-.26l-9.37,2.98c-1.27.4-2.45-.82-2-2.08l3.33-9.25c.18-.5.1-1.05-.21-1.48l-5.73-7.99c-.78-1.08.03-2.59,1.36-2.54l9.83.31c.53.02,1.03-.23,1.35-.65l5.83-7.92c.79-1.07,2.47-.77,2.84.51l2.74,9.44c.15.51.54.91,1.04,1.08l9.33,3.1c1.26.42,1.5,2.11.4,2.86l-8.13,5.52c-.44.3-.7.79-.7,1.32l-.06,9.83c0,1.33-1.54,2.08-2.59,1.26Z"/>
    <path class="cls-4" d="m554.53,166.78l-9.54-2.35c-.51-.13-1.06,0-1.45.36l-7.35,6.53c-1,.89-2.57.24-2.67-1.09l-.71-9.8c-.04-.53-.33-1-.79-1.27l-8.48-4.97c-1.15-.67-1.03-2.37.21-2.88l9.1-3.71c.49-.2.85-.63.96-1.14l2.11-9.6c.29-1.3,1.94-1.71,2.8-.69l6.34,7.51c.34.4.86.62,1.39.56l9.78-.96c1.33-.13,2.23,1.32,1.52,2.45l-5.19,8.35c-.28.45-.32,1.01-.11,1.49l3.94,9.01c.53,1.22-.56,2.52-1.86,2.21Z"/>
    <path class="cls-4" d="m81.69,302.44l-9.54-2.35c-.51-.13-1.06,0-1.45.36l-7.35,6.53c-1,.89-2.57.24-2.67-1.09l-.71-9.8c-.04-.53-.33-1-.79-1.27l-8.48-4.97c-1.15-.67-1.03-2.37.21-2.88l9.1-3.71c.49-.2.85-.63.96-1.14l2.11-9.6c.29-1.3,1.94-1.71,2.8-.69l6.34,7.51c.34.4.86.62,1.39.56l9.78-.96c1.33-.13,2.23,1.32,1.52,2.45l-5.19,8.35c-.28.45-.32,1.01-.11,1.49l3.94,9.01c.53,1.22-.56,2.52-1.86,2.21Z"/>
    <path class="cls-4" d="m491.12,58.93l-8.69-4.59c-.47-.25-1.03-.25-1.5,0l-8.71,4.56c-1.18.62-2.56-.39-2.33-1.7l1.68-9.69c.09-.52-.08-1.05-.46-1.42l-7.03-6.87c-.95-.93-.42-2.55.9-2.74l9.73-1.4c.52-.08.98-.4,1.21-.88l4.37-8.81c.59-1.19,2.3-1.19,2.88,0l4.33,8.82c.23.47.69.8,1.21.88l9.73,1.43c1.32.19,1.84,1.82.89,2.74l-7.05,6.85c-.38.37-.55.9-.46,1.42l1.64,9.69c.22,1.31-1.16,2.31-2.34,1.69Z"/>
    <path class="cls-4" d="m688.49,208.02l-8.44,5.04c-.45.27-.75.75-.78,1.28l-.64,9.81c-.09,1.33-1.66,1.98-2.66,1.11l-7.4-6.47c-.4-.35-.94-.48-1.46-.35l-9.53,2.43c-1.29.33-2.4-.97-1.88-2.19l3.87-9.04c.21-.49.16-1.04-.12-1.49l-5.25-8.31c-.71-1.13.18-2.58,1.5-2.46l9.79.89c.53.05,1.04-.17,1.38-.57l6.28-7.56c.85-1.03,2.51-.63,2.8.67l2.18,9.58c.12.52.48.94.97,1.14l9.13,3.64c1.24.49,1.37,2.19.23,2.87Z"/>
    <path class="cls-4" d="m811.7,57l-9.38,2.95c-.5.16-.9.56-1.05,1.06l-2.88,9.4c-.39,1.27-2.07,1.55-2.85.46l-5.71-8c-.31-.43-.81-.68-1.34-.67l-9.83.16c-1.33.02-2.11-1.49-1.32-2.56l5.85-7.9c.31-.43.4-.98.23-1.48l-3.19-9.3c-.43-1.26.77-2.47,2.03-2.05l9.32,3.12c.5.17,1.05.08,1.48-.24l7.86-5.91c1.06-.8,2.59-.03,2.57,1.3l-.09,9.83c0,.53.25,1.03.68,1.33l8.05,5.64c1.09.77.83,2.45-.44,2.85Z"/>
    <path class="cls-4" d="m776.49,131.9l-3.52,9.18c-.19.49-.12,1.05.18,1.49l5.57,8.1c.75,1.1-.08,2.59-1.41,2.52l-9.82-.51c-.53-.03-1.04.21-1.36.63l-5.98,7.8c-.81,1.06-2.48.73-2.83-.56l-2.55-9.49c-.14-.51-.52-.92-1.02-1.1l-9.27-3.28c-1.26-.44-1.46-2.14-.34-2.86l8.24-5.36c.44-.29.72-.78.73-1.31l.26-9.83c.03-1.33,1.58-2.05,2.62-1.21l7.64,6.18c.41.33.96.44,1.47.29l9.43-2.79c1.28-.38,2.43.87,1.96,2.12Z"/>
    <path class="cls-4" d="m381.09,196.57l-6.08,7.72c-.33.42-.43.97-.27,1.47l2.92,9.39c.4,1.27-.84,2.45-2.09,1.99l-9.23-3.39c-.5-.18-1.05-.11-1.48.2l-8.03,5.68c-1.09.77-2.59-.04-2.53-1.37l.38-9.82c.02-.53-.22-1.03-.64-1.35l-7.88-5.88c-1.07-.8-.76-2.47.52-2.84l9.46-2.68c.51-.14.91-.53,1.08-1.03l3.16-9.31c.43-1.26,2.12-1.49,2.86-.38l5.47,8.17c.29.44.79.71,1.32.71l9.83.13c1.33.02,2.07,1.55,1.24,2.6Z"/>
    <path class="cls-4" d="m320.16,248.13l-6.08,7.72c-.33.42-.43.97-.27,1.47l2.92,9.39c.4,1.27-.84,2.45-2.09,1.99l-9.23-3.39c-.5-.18-1.05-.11-1.48.2l-8.03,5.68c-1.09.77-2.59-.04-2.53-1.37l.38-9.82c.02-.53-.22-1.03-.64-1.35l-7.88-5.88c-1.07-.8-.76-2.47.52-2.84l9.46-2.68c.51-.14.91-.53,1.08-1.03l3.16-9.31c.43-1.26,2.12-1.49,2.86-.38l5.47,8.17c.29.44.79.71,1.32.71l9.83.13c1.33.02,2.07,1.55,1.24,2.6Z"/>
    <path class="cls-4" d="m240.52,309.96l-6.08,7.72c-.33.42-.43.97-.27,1.47l2.92,9.39c.4,1.27-.84,2.45-2.09,1.99l-9.23-3.39c-.5-.18-1.05-.11-1.48.2l-8.03,5.68c-1.09.77-2.59-.04-2.53-1.37l.38-9.82c.02-.53-.22-1.03-.64-1.35l-7.88-5.88c-1.07-.8-.76-2.47.52-2.84l9.46-2.68c.51-.14.91-.53,1.08-1.03l3.16-9.31c.43-1.26,2.12-1.49,2.86-.38l5.47,8.17c.29.44.79.71,1.32.71l9.83.13c1.33.02,2.07,1.55,1.24,2.6Z"/>
    <path class="cls-4" d="m441.39,110.08l-4.8,8.58c-.26.46-.27,1.02-.04,1.5l4.35,8.82c.59,1.2-.45,2.55-1.75,2.29l-9.64-1.91c-.52-.1-1.06.06-1.43.43l-7.04,6.86c-.95.93-2.56.36-2.72-.96l-1.16-9.76c-.06-.53-.38-.99-.85-1.23l-8.7-4.58c-1.18-.62-1.14-2.32.07-2.88l8.92-4.12c.48-.22.82-.67.91-1.19l1.66-9.69c.23-1.31,1.86-1.8,2.76-.82l6.68,7.21c.36.39.89.57,1.41.5l9.73-1.41c1.32-.19,2.28,1.21,1.63,2.38Z"/>
    <line class="cls-3" x1="609.4" y1="51.9" x2="692.04" y2="24.05"/>
    <line class="cls-3" x1="615.46" y1="79.31" x2="698.1" y2="51.46"/>
    <line class="cls-3" x1="620.68" y1="62.45" x2="694.61" y2="37.53"/>
  </g>
</svg>