<?xml version="1.0" encoding="UTF-8"?>
<svg id="Layer_2" data-name="Layer 2" xmlns="http://www.w3.org/2000/svg" viewBox="0 0 157.13 156.91">
  <defs>
    <style>
      .cls-1 {
        fill: #ebbab9;
      }
    </style>
  </defs>
  <g id="Favicon_Dark_Mode" data-name="Favicon Dark Mode">
    <path class="cls-1" d="m131.87,156.91c4.45.02,9.47-3.14,9.44-9.31,0-.58-.1-64.31-.13-89.61,0-1.29.38-2.06,1.48-2.71,4.2-2.47,7.85-5.6,10.76-9.51,3.34-4.48,4.64-9.41,3-14.91-1.35-4.54-4.16-8.07-7.7-11.1-7.54-6.46-16.44-10.28-25.77-13.2C110.77,2.76,98.22.93,85.5.27c-6.42-.34-12.86-.35-19.3-.11-7.36.27-14.64,1.1-21.85,2.57-10.82,2.21-21.16,5.72-30.43,11.91-4.28,2.85-8.18,6.12-10.88,10.61-3.75,6.23-4.12,12.59-.63,19.05,2.15,3.99,5.1,7.31,8.84,9.81,2.06,1.37,2.81,2.83,2.8,5.4l-.08,88.61c0,2.27.55,4.35,2.15,6.07,1.79,1.91,4,2.72,6.58,2.72h109.17Zm-11.61-107.58c-1.04.62-1.43,1.42-1.43,2.65.03,21.89.02,43.79.02,65.68v25.55c0,.29-.04.58,0,.87.12,1.12-.32,1.5-1.48,1.49-8.93-.04-17.86-.02-26.8-.02H27.01q-1.73,0-1.73-1.71v-45.99h0c0-15.37,0-30.74.02-46.11,0-1.18-.4-1.87-1.42-2.49-3.84-2.33-7.64-4.7-10.37-8.43-3.08-4.21-2.98-7.71.49-11.7,3.28-3.77,7.38-6.4,11.81-8.59,8.78-4.32,18.13-6.62,27.75-8.01,7.84-1.14,15.71-1.5,23.6-1.17,13.74.57,27.17,2.67,39.78,8.56,4.55,2.13,8.79,4.7,12.31,8.33,1.2,1.23,2.14,2.63,2.86,4.2,1.02,2.22.81,4.37-.34,6.45-1.94,3.52-5,5.94-8.2,8.22-1.08.77-2.18,1.53-3.32,2.2v.02Z"/>
    <path class="cls-1" d="m46.67,73.26c-8.1,0-14.67,8.97-14.67,20.03s6.58,20.03,14.67,20.03,14.67-8.97,14.67-20.03-6.58-20.03-14.67-20.03Zm-5.76,18.39c-2.27,0-4.12-1.84-4.12-4.12s1.84-4.12,4.12-4.12,4.12,1.84,4.12,4.12-1.84,4.12-4.12,4.12Zm6.76-5.16c-1.14,0-2.06-.92-2.06-2.06s.92-2.06,2.06-2.06,2.06.92,2.06,2.06-.92,2.06-2.06,2.06Z"/>
    <path class="cls-1" d="m94.61,73.26c-8.1,0-14.67,8.97-14.67,20.03s6.58,20.03,14.67,20.03,14.67-8.97,14.67-20.03-6.58-20.03-14.67-20.03Zm-5.76,18.39c-2.27,0-4.12-1.84-4.12-4.12s1.84-4.12,4.12-4.12,4.12,1.84,4.12,4.12-1.84,4.12-4.12,4.12Zm6.76-5.16c-1.14,0-2.06-.92-2.06-2.06s.92-2.06,2.06-2.06,2.06.92,2.06,2.06-.92,2.06-2.06,2.06Z"/>
    <path class="cls-1" d="m68.53,122.83c-.47,0-.94-.04-1.39-.09-5.29-.75-8.03-5.6-8.15-5.81-.71-1.3-.24-2.91,1.04-3.64,1.28-.71,2.9-.25,3.62,1.03.04.08,1.63,2.77,4.26,3.11,2.63.36,5.44-1.82,7.32-3.7,1.04-1.04,2.74-1.04,3.78,0s1.04,2.74,0,3.78c-3.53,3.53-7.06,5.31-10.49,5.31h0Z"/>
  </g>
</svg>