<svg xmlns="http://www.w3.org/2000/svg" viewBox="0 0 157.13 156.91">
    <defs>
        <style>.cls-1{fill:#cc2936;}</style>
    </defs>
    <g id="Ebene_2" data-name="Ebene 2">
        <g id="Layer_1" data-name="Layer 1">
            <path class="cls-1"
                d="M47.67,82.37a2.06,2.06,0,1,0,2.06,2.06A2.06,2.06,0,0,0,47.67,82.37Z" />
            <path class="cls-1"
                d="M40.91,83.41A4.12,4.12,0,1,0,45,87.53,4.11,4.11,0,0,0,40.91,83.41Z" />
            <circle class="cls-1" cx="88.85" cy="87.53" r="4.12" />
            <circle class="cls-1" cx="95.61" cy="84.43" r="2.06" />
            <path class="cls-1"
                d="M156.42,30.86a23.37,23.37,0,0,0-7.7-11.1C141.18,13.3,132.28,9.48,123,6.56A151.47,151.47,0,0,0,85.5.27C79.08-.07,72.64-.08,66.2.16A133.64,133.64,0,0,0,44.35,2.73C33.53,4.94,23.19,8.45,13.92,14.64,9.64,17.49,5.74,20.76,3,25.25c-3.75,6.23-4.12,12.59-.63,19a27.09,27.09,0,0,0,8.84,9.81,5.61,5.61,0,0,1,2.8,5.4L14,148.12a8.33,8.33,0,0,0,8.73,8.79H131.87a9.15,9.15,0,0,0,9.44-9.31c0-.58-.1-64.31-.13-89.61a2.74,2.74,0,0,1,1.48-2.71,35.92,35.92,0,0,0,10.76-9.51C156.76,41.29,158.06,36.36,156.42,30.86ZM46.67,113.32c-8.09,0-14.67-9-14.67-20s6.57-20,14.67-20,14.67,9,14.67,20S54.76,113.32,46.67,113.32ZM79,117.51c-3.53,3.53-7.06,5.31-10.49,5.31h0a12.64,12.64,0,0,1-1.39-.09c-5.29-.75-8-5.6-8.15-5.81a2.67,2.67,0,0,1,4.66-2.61c0,.08,1.63,2.77,4.26,3.11s5.44-1.82,7.32-3.7A2.67,2.67,0,0,1,79,117.51Zm15.6-4.19c-8.09,0-14.67-9-14.67-20s6.57-20,14.67-20,14.67,9,14.67,20S102.7,113.32,94.61,113.32Z" />
        </g>
    </g>
</svg>