<?xml version="1.0" encoding="UTF-8"?>
<svg id="Layer_2" data-name="Layer 2" xmlns="http://www.w3.org/2000/svg" viewBox="0 0 601 601">
  <defs>
    <style>
      .cls-1 {
        fill: #fff;
        stroke: #000;
        stroke-miterlimit: 10;
      }
    </style>
  </defs>
  <g id="Layer_1-2" data-name="Layer 1">
    <path class="cls-1" d="m304.79,315.13c0,1.7-1.38,3.08-3.08,3.08s-3.08-1.38-3.08-3.08,1.38-3.08,3.08-3.08,3.08,1.38,3.08,3.08Z"/>
    <path class="cls-1" d="m308.31,312.81c0,.85-.69,1.54-1.54,1.54s-1.54-.69-1.54-1.54.69-1.54,1.54-1.54,1.54.69,1.54,1.54Z"/>
    <path class="cls-1" d="m357.21,235.71c-.72-1.57-1.66-2.97-2.86-4.2-3.52-3.63-7.76-6.2-12.31-8.33-12.61-5.89-26.04-7.99-39.78-8.56-7.89-.33-15.76.03-23.6,1.17-9.62,1.39-18.97,3.69-27.75,8.01-4.43,2.19-8.53,4.82-11.81,8.59-3.47,3.99-3.57,7.49-.49,11.7,2.73,3.73,6.53,6.1,10.37,8.43,1.02.62,1.42,1.31,1.42,2.49-.03,15.37-.02,30.74-.02,46.11h0v45.99q0,1.71,1.73,1.71h63.56c8.94,0,17.87-.02,26.8.02,1.16.01,1.6-.37,1.48-1.49-.04-.29,0-.58,0-.87v-25.55c0-21.89.01-43.79-.02-65.68,0-1.23.39-2.03,1.43-2.65v-.02c1.14-.67,2.24-1.43,3.32-2.2,3.2-2.28,6.26-4.7,8.2-8.22,1.15-2.08,1.36-4.23.34-6.45Zm-87.06,98.72c-6.06,0-10.98-6.71-10.98-14.99s4.92-14.99,10.98-14.99,10.98,6.71,10.98,14.99-4.92,14.99-10.98,14.99Zm24.21,3.13c-2.64,2.64-5.28,3.97-7.85,3.97h0c-.35.01-.7-.02-1.04-.06-3.96-.56-6.01-4.19-6.1-4.35-.53-.97-.18-2.18.78-2.72.96-.53,2.17-.19,2.71.77.03.06,1.22,2.07,3.19,2.33,1.97.27,4.07-1.36,5.48-2.77.78-.78,2.05-.78,2.83,0s.78,2.05,0,2.83Zm11.66-3.13c-6.06,0-10.98-6.71-10.98-14.99s4.92-14.99,10.98-14.99,10.98,6.71,10.98,14.99-4.92,14.99-10.98,14.99Zm-35.12-23.16c-.85,0-1.54.69-1.54,1.54s.69,1.54,1.54,1.54,1.54-.69,1.54-1.54-.69-1.54-1.54-1.54Zm-5.06.78c-1.7,0-3.08,1.38-3.08,3.08s1.38,3.08,3.08,3.08,3.08-1.38,3.08-3.08-1.38-3.08-3.08-3.08Z"/>
    <path class="cls-1" d="m.5.5v600h600V.5H.5Zm383.34,368.92c-.5.14-1,.21-1.5.21-2.4,0-4.6-1.58-5.29-4l-3.87-13.65-6.78-2.85v1.74c.03,6.17-4.99,9.33-9.44,9.31-9.51-.04-19.03-.01-28.54-.01h-6.12v21.56c0,1.67-.76,3.25-2.06,4.29l-13.14,10.51c-1.01.82-2.22,1.21-3.43,1.21-1.62,0-3.21-.7-4.3-2.06-1.9-2.37-1.51-5.83.86-7.73l11.07-8.86v-18.9h0s-33.49,0-33.49,0v18.5c0,1.67-.76,3.25-2.06,4.29l-13.14,10.51c-1.01.82-2.22,1.21-3.43,1.21-1.61,0-3.21-.7-4.3-2.06-1.9-2.37-1.51-5.83.86-7.73l11.07-8.86v-15.86h-19.02c-2.58,0-4.79-.81-6.58-2.72-1.6-1.72-2.15-3.8-2.15-6.07v-7.62l-17.72-7.26c-1.54-.63-2.72-1.94-3.19-3.54l-4.75-16.14c-.86-2.92.81-5.97,3.72-6.83,2.92-.86,5.97.81,6.83,3.72l4,13.61,11.11,4.55v-1.93c0-22.39-.06-44.78.08-67.17.01-2.57-.74-4.03-2.8-5.4-3.74-2.5-6.69-5.82-8.84-9.81-3.49-6.46-3.12-12.82.63-19.05,2.7-4.49,6.6-7.76,10.88-10.61,9.27-6.19,19.61-9.7,30.43-11.91,7.21-1.47,14.49-2.3,21.85-2.57,6.44-.24,12.88-.23,19.3.11,12.72.66,25.27,2.49,37.45,6.29,9.33,2.92,18.23,6.74,25.77,13.2,3.54,3.03,6.35,6.56,7.7,11.1,1.64,5.5.34,10.43-3,14.91-2.91,3.91-6.56,7.04-10.76,9.51-1.1.65-1.48,1.42-1.48,2.71.03,25.3-.03,50.61.06,75.91l13.53,5.7c1.54.65,2.7,1.96,3.16,3.57l4.59,16.19h.02c.83,2.92-.87,5.96-3.79,6.79Z"/>
  </g>
</svg>