<?xml version="1.0" encoding="utf-8"?>
<!-- Generator: Adobe Illustrator 27.2.0, SVG Export Plug-In . SVG Version: 6.00 Build 0)  -->
<svg version="1.1" xmlns="http://www.w3.org/2000/svg" xmlns:xlink="http://www.w3.org/1999/xlink" x="0px" y="0px"
	 viewBox="0 0 175 195" style="enable-background:new 0 0 175 195;" xml:space="preserve">
<style type="text/css">
	.st0{fill:#EBBAB9;}
	.st1{fill:#CC2936;}
</style>
<g id="Logo">
	<path class="st0" d="M-215.6,159.4l-4.6-16.2c-0.5-1.6-1.6-2.9-3.2-3.6l-13.5-5.7c-0.1-25.3,0-50.6-0.1-75.9c0-1.3,0.4-2.1,1.5-2.7
		c4.2-2.5,7.8-5.6,10.8-9.5c3.3-4.5,4.6-9.4,3-14.9c-1.3-4.5-4.2-8.1-7.7-11.1c-7.5-6.5-16.4-10.3-25.8-13.2
		c-12.2-3.8-24.7-5.6-37.5-6.3c-6.4-0.3-12.9-0.4-19.3-0.1c-7.4,0.3-14.6,1.1-21.9,2.6c-10.8,2.2-21.2,5.7-30.4,11.9
		c-4.3,2.8-8.2,6.1-10.9,10.6c-3.8,6.2-4.1,12.6-0.6,19c2.1,4,5.1,7.3,8.8,9.8c2.1,1.4,2.8,2.8,2.8,5.4c-0.1,22.4-0.1,44.8-0.1,67.2
		c0,0.6,0,1.3,0,1.9l-11.1-4.5l-4-13.6c-0.9-2.9-3.9-4.6-6.8-3.7c-2.9,0.9-4.6,3.9-3.7,6.8l4.8,16.1c0.5,1.6,1.6,2.9,3.2,3.5
		l17.7,7.3c0,2.5,0,5.1,0,7.6c0,2.3,0.6,4.3,2.1,6.1c1.8,1.9,4,2.7,6.6,2.7c6.3,0,12.7,0,19,0v15.9l-11.1,8.9
		c-2.4,1.9-2.8,5.4-0.9,7.7c1.1,1.4,2.7,2.1,4.3,2.1c1.2,0,2.4-0.4,3.4-1.2l13.1-10.5c1.3-1,2.1-2.6,2.1-4.3v-18.5
		c8.2,0,16.3,0,24.4,0c3,0,6,0,9,0c0,0,0,0,0,0v18.9l-11.1,8.9c-2.4,1.9-2.8,5.4-0.9,7.7c1.1,1.4,2.7,2.1,4.3,2.1
		c1.2,0,2.4-0.4,3.4-1.2l13.1-10.5c1.3-1,2.1-2.6,2.1-4.3v-21.6c0,0,0,0,0,0h6.1c9.5,0,19,0,28.5,0c4.5,0,9.5-3.1,9.4-9.3
		c0-0.6,0-1.2,0-1.7l6.8,2.9l3.9,13.6c0.7,2.4,2.9,4,5.3,4c0.5,0,1-0.1,1.5-0.2C-216.4,165.3-214.7,162.3-215.6,159.4L-215.6,159.4z
		 M-257.8,49.3c-1,0.6-1.4,1.4-1.4,2.7c0,21.9,0,43.8,0,65.7c0,8.5,0,17,0,25.6c0,0.3,0,0.6,0,0.9c0.1,1.1-0.3,1.5-1.5,1.5
		c-8.9,0-17.9,0-26.8,0c-21.2,0-42.4,0-63.6,0c-1.7,0-1.7,0-1.7-1.7c0-15.3,0-30.7,0-46h0c0-15.4,0-30.7,0-46.1
		c0-1.2-0.4-1.9-1.4-2.5c-3.8-2.3-7.6-4.7-10.4-8.4c-3.1-4.2-3-7.7,0.5-11.7c3.3-3.8,7.4-6.4,11.8-8.6c8.8-4.3,18.1-6.6,27.8-8
		c7.8-1.1,15.7-1.5,23.6-1.2c13.7,0.6,27.2,2.7,39.8,8.6c4.5,2.1,8.8,4.7,12.3,8.3c1.2,1.2,2.1,2.6,2.9,4.2c1,2.2,0.8,4.4-0.3,6.5
		c-1.9,3.5-5,5.9-8.2,8.2C-255.6,47.9-256.7,48.7-257.8,49.3L-257.8,49.3z"/>
	<path class="st0" d="M-333,101.2c-6.1,0-11,6.7-11,15s4.9,15,11,15c6.1,0,11-6.7,11-15S-327,101.2-333,101.2z M-337.3,114.9
		c-1.7,0-3.1-1.4-3.1-3.1c0-1.7,1.4-3.1,3.1-3.1c1.7,0,3.1,1.4,3.1,3.1C-334.2,113.6-335.6,114.9-337.3,114.9z M-332.3,111.1
		c-0.9,0-1.5-0.7-1.5-1.5c0-0.9,0.7-1.5,1.5-1.5s1.5,0.7,1.5,1.5C-330.7,110.4-331.4,111.1-332.3,111.1z"/>
	<path class="st0" d="M-297.1,101.2c-6.1,0-11,6.7-11,15s4.9,15,11,15s11-6.7,11-15S-291.1,101.2-297.1,101.2z M-301.5,114.9
		c-1.7,0-3.1-1.4-3.1-3.1c0-1.7,1.4-3.1,3.1-3.1c1.7,0,3.1,1.4,3.1,3.1C-298.4,113.6-299.8,114.9-301.5,114.9z M-296.4,111.1
		c-0.9,0-1.5-0.7-1.5-1.5c0-0.9,0.7-1.5,1.5-1.5s1.5,0.7,1.5,1.5C-294.9,110.4-295.5,111.1-296.4,111.1z"/>
	<path class="st0" d="M-316.7,138.3c-0.4,0-0.7,0-1-0.1c-4-0.6-6-4.2-6.1-4.4c-0.5-1-0.2-2.2,0.8-2.7c1-0.5,2.2-0.2,2.7,0.8
		c0,0.1,1.2,2.1,3.2,2.3c2,0.3,4.1-1.4,5.5-2.8c0.8-0.8,2.1-0.8,2.8,0s0.8,2.1,0,2.8C-311.5,136.9-314.1,138.3-316.7,138.3
		L-316.7,138.3z"/>
</g>
<g id="Favicon_Light_Mode">
	<path class="st1" d="M-54.2,176c4.5,0,9.5-3.1,9.4-9.3c0-0.6-0.1-64.3-0.1-89.6c0-1.3,0.4-2.1,1.5-2.7c4.2-2.5,7.8-5.6,10.8-9.5
		c3.3-4.5,4.6-9.4,3-14.9c-1.3-4.5-4.2-8.1-7.7-11.1c-7.5-6.5-16.4-10.3-25.8-13.2c-12.2-3.8-24.7-5.6-37.5-6.3
		c-6.4-0.3-12.9-0.4-19.3-0.1c-7.4,0.3-14.6,1.1-21.9,2.6c-10.8,2.2-21.2,5.7-30.4,11.9c-4.3,2.8-8.2,6.1-10.9,10.6
		c-3.8,6.2-4.1,12.6-0.6,19c2.2,4,5.1,7.3,8.8,9.8c2.1,1.4,2.8,2.8,2.8,5.4l-0.1,88.6c0,2.3,0.5,4.3,2.1,6.1c1.8,1.9,4,2.7,6.6,2.7
		H-54.2z M-65.8,68.4c-1,0.6-1.4,1.4-1.4,2.7c0,21.9,0,43.8,0,65.7c0,8.5,0,17,0,25.6c0,0.3,0,0.6,0,0.9c0.1,1.1-0.3,1.5-1.5,1.5
		c-8.9,0-17.9,0-26.8,0c-21.2,0-42.4,0-63.6,0c-1.7,0-1.7,0-1.7-1.7c0-15.3,0-30.7,0-46h0c0-15.4,0-30.7,0-46.1
		c0-1.2-0.4-1.9-1.4-2.5c-3.8-2.3-7.6-4.7-10.4-8.4c-3.1-4.2-3-7.7,0.5-11.7c3.3-3.8,7.4-6.4,11.8-8.6c8.8-4.3,18.1-6.6,27.8-8
		c7.8-1.1,15.7-1.5,23.6-1.2c13.7,0.6,27.2,2.7,39.8,8.6c4.6,2.1,8.8,4.7,12.3,8.3c1.2,1.2,2.1,2.6,2.9,4.2c1,2.2,0.8,4.4-0.3,6.5
		c-1.9,3.5-5,5.9-8.2,8.2C-63.6,66.9-64.7,67.7-65.8,68.4L-65.8,68.4z"/>
	<path class="st1" d="M-139.4,92.3c-8.1,0-14.7,9-14.7,20s6.6,20,14.7,20s14.7-9,14.7-20S-131.3,92.3-139.4,92.3z M-145.2,110.7
		c-2.3,0-4.1-1.8-4.1-4.1c0-2.3,1.8-4.1,4.1-4.1c2.3,0,4.1,1.8,4.1,4.1C-141,108.8-142.9,110.7-145.2,110.7z M-138.4,105.5
		c-1.1,0-2.1-0.9-2.1-2.1c0-1.1,0.9-2.1,2.1-2.1c1.1,0,2.1,0.9,2.1,2.1C-136.3,104.6-137.3,105.5-138.4,105.5z"/>
	<path class="st1" d="M-91.5,92.3c-8.1,0-14.7,9-14.7,20s6.6,20,14.7,20s14.7-9,14.7-20S-83.4,92.3-91.5,92.3z M-97.2,110.7
		c-2.3,0-4.1-1.8-4.1-4.1c0-2.3,1.8-4.1,4.1-4.1c2.3,0,4.1,1.8,4.1,4.1C-93.1,108.8-94.9,110.7-97.2,110.7z M-90.5,105.5
		c-1.1,0-2.1-0.9-2.1-2.1c0-1.1,0.9-2.1,2.1-2.1s2.1,0.9,2.1,2.1C-88.4,104.6-89.3,105.5-90.5,105.5z"/>
	<path class="st1" d="M-117.5,141.9c-0.5,0-0.9,0-1.4-0.1c-5.3-0.7-8-5.6-8.2-5.8c-0.7-1.3-0.2-2.9,1-3.6c1.3-0.7,2.9-0.3,3.6,1
		c0,0.1,1.6,2.8,4.3,3.1c2.6,0.4,5.4-1.8,7.3-3.7c1-1,2.7-1,3.8,0c1,1,1,2.7,0,3.8C-110.6,140.1-114.1,141.9-117.5,141.9
		L-117.5,141.9z"/>
</g>
<g id="Favicon_Dark_Mode">
	<path class="st0" d="M140.8,176c4.5,0,9.5-3.1,9.4-9.3c0-0.6-0.1-64.3-0.1-89.6c0-1.3,0.4-2.1,1.5-2.7c4.2-2.5,7.8-5.6,10.8-9.5
		c3.3-4.5,4.6-9.4,3-14.9c-1.3-4.5-4.2-8.1-7.7-11.1c-7.5-6.5-16.4-10.3-25.8-13.2c-12.2-3.8-24.7-5.6-37.5-6.3
		C88,19,81.6,19,75.1,19.2c-7.4,0.3-14.6,1.1-21.8,2.6C42.5,24,32.1,27.5,22.9,33.7c-4.3,2.8-8.2,6.1-10.9,10.6
		c-3.8,6.2-4.1,12.6-0.6,19c2.2,4,5.1,7.3,8.8,9.8c2.1,1.4,2.8,2.8,2.8,5.4l-0.1,88.6c0,2.3,0.5,4.3,2.1,6.1c1.8,1.9,4,2.7,6.6,2.7
		H140.8z M129.2,68.4c-1,0.6-1.4,1.4-1.4,2.7c0,21.9,0,43.8,0,65.7c0,8.5,0,17,0,25.6c0,0.3,0,0.6,0,0.9c0.1,1.1-0.3,1.5-1.5,1.5
		c-8.9,0-17.9,0-26.8,0c-21.2,0-42.4,0-63.6,0c-1.7,0-1.7,0-1.7-1.7c0-15.3,0-30.7,0-46h0c0-15.4,0-30.7,0-46.1
		c0-1.2-0.4-1.9-1.4-2.5c-3.8-2.3-7.6-4.7-10.4-8.4c-3.1-4.2-3-7.7,0.5-11.7c3.3-3.8,7.4-6.4,11.8-8.6c8.8-4.3,18.1-6.6,27.8-8
		c7.8-1.1,15.7-1.5,23.6-1.2c13.7,0.6,27.2,2.7,39.8,8.6c4.6,2.1,8.8,4.7,12.3,8.3c1.2,1.2,2.1,2.6,2.9,4.2c1,2.2,0.8,4.4-0.3,6.5
		c-1.9,3.5-5,5.9-8.2,8.2C131.4,66.9,130.3,67.7,129.2,68.4L129.2,68.4z"/>
	<path class="st0" d="M55.6,92.3c-8.1,0-14.7,9-14.7,20s6.6,20,14.7,20s14.7-9,14.7-20S63.7,92.3,55.6,92.3z M49.8,110.7
		c-2.3,0-4.1-1.8-4.1-4.1c0-2.3,1.8-4.1,4.1-4.1s4.1,1.8,4.1,4.1C54,108.8,52.1,110.7,49.8,110.7z M56.6,105.5
		c-1.1,0-2.1-0.9-2.1-2.1c0-1.1,0.9-2.1,2.1-2.1c1.1,0,2.1,0.9,2.1,2.1C58.7,104.6,57.7,105.5,56.6,105.5z"/>
	<path class="st0" d="M103.5,92.3c-8.1,0-14.7,9-14.7,20s6.6,20,14.7,20s14.7-9,14.7-20S111.6,92.3,103.5,92.3z M97.8,110.7
		c-2.3,0-4.1-1.8-4.1-4.1c0-2.3,1.8-4.1,4.1-4.1c2.3,0,4.1,1.8,4.1,4.1C101.9,108.8,100.1,110.7,97.8,110.7z M104.5,105.5
		c-1.1,0-2.1-0.9-2.1-2.1c0-1.1,0.9-2.1,2.1-2.1s2.1,0.9,2.1,2.1C106.6,104.6,105.7,105.5,104.5,105.5z"/>
	<path class="st0" d="M77.5,141.9c-0.5,0-0.9,0-1.4-0.1c-5.3-0.7-8-5.6-8.2-5.8c-0.7-1.3-0.2-2.9,1-3.6c1.3-0.7,2.9-0.3,3.6,1
		c0,0.1,1.6,2.8,4.3,3.1c2.6,0.4,5.4-1.8,7.3-3.7c1-1,2.7-1,3.8,0c1,1,1,2.7,0,3.8C84.4,140.1,80.9,141.9,77.5,141.9L77.5,141.9z"/>
</g>
</svg>
