<?xml version="1.0" encoding="utf-8"?>
<!-- Generator: Adobe Illustrator 26.0.1, SVG Export Plug-In . SVG Version: 6.00 Build 0)  -->
<svg version="1.1" id="sendIcon" xmlns="http://www.w3.org/2000/svg" xmlns:xlink="http://www.w3.org/1999/xlink" x="0px" y="0px"
	 viewBox="0 0 122.6 122.9" style="enable-background:new 0 0 122.6 122.9;" xml:space="preserve">
<style type="text/css">
	.st0{fill:#015E54;}
	.st1{fill:#00D467;}
	.st2{fill:#DAF9C6;}
	.st3{fill:none;stroke:#000000;stroke-miterlimit:10;}
	.st4{fill:#ECE5DD;}
	.st5{opacity:0.2;}
	.st6{opacity:0.6;}
	.st7{fill:#BDB7B1;}
	.st8{fill:#5E5C58;}
</style>
<circle class="st0" cx="6.7" cy="824.7" r="245.6"/>
<path d="M2.3,44.6l115-44.2c1.8-0.9,4-0.2,4.9,1.6c0.5,0.9,0.5,2,0.1,2.9l-44,115.6l0,0c-0.7,1.9-2.8,2.8-4.7,2.1
	c-0.9-0.3-1.6-1-2-1.8L53.9,89.1L33.8,38.8L2.1,51.2c-1.8-0.9-2.6-3-1.7-4.8C0.8,45.6,1.5,44.9,2.3,44.6z"/>
<polygon class="st1" points="166.1,68.4 259,12 249.3,128.3 230.2,77.6 209.1,94.4 209,68.2 "/>
<polygon class="st2" points="209,68.2 259,12 230.2,77.6 209.1,94.4 "/>
<path d="M479.4,5.9c-0.9-1.8-3.1-2.5-4.9-1.6L359.7,48.5c-0.7,0.3-1.3,0.7-1.7,1.2c0,0,0,0-0.1,0.1c-1.7,2.4,1,5.6,3.7,4.5l33-0.2
	V88l15.2-15.2l19.1,52c0.4,0.8,1.1,1.5,2,1.8c1.9,0.7,4-0.2,4.7-2.1l44-115.6C479.9,7.9,479.9,6.9,479.4,5.9z"/>
<polygon class="st3" points="1194.3,-207 859,-39.9 921,1.6 963.5,85.7 964.2,32.6 1077.6,91 "/>
<polygon class="st3" points="921,1.6 1194.3,-207 964.2,32.6 963.5,85.7 "/>
<polygon class="st3" points="963.5,85.7 999.1,50.6 964.2,32.6 "/>
<polygon class="st3" points="909.2,251.1 573.9,418.3 635.9,459.8 678.5,543.9 679.2,490.8 792.5,549.1 "/>
<polygon class="st3" points="635.9,459.8 909.2,251.1 679.2,490.8 678.5,543.9 "/>
<polygon class="st3" points="678.5,543.9 714,508.7 679.2,490.8 "/>
<g>
	<polygon class="st4" points="1712,270.5 1376.7,437.6 1438.7,479.2 1481.3,563.3 1516.8,528.1 1595.3,568.5 	"/>
	<g>
		<g>
			<polygon class="st2" points="1438.7,479.2 1712,270.5 1482,510.2 1481.3,563.3 			"/>
		</g>
	</g>
	<polygon class="st1" points="1481.3,563.3 1516.8,528.1 1482,510.2 	"/>
</g>
<polygon class="st4" points="1218,475.5 882.7,642.6 944.7,684.1 987.3,768.2 1022.8,733.1 1101.3,773.5 "/>
<g class="st5">
	<polygon points="944.7,684.1 1218,475.5 988,715.1 987.3,768.2 	"/>
</g>
<polygon class="st6" points="987.3,768.2 1022.8,733.1 988,715.1 "/>
<g>
	<g class="st5">
		<polygon points="-98.9,884.3 174.4,675.7 -55.6,915.3 -56.3,968.4 		"/>
	</g>
	<polygon class="st6" points="-56.3,968.4 -20.8,933.2 -55.6,915.3 	"/>
	<polygon class="st4" points="-160.9,842.8 174.4,675.7 -98.9,884.3 	"/>
	<polygon class="st4" points="174.4,675.7 57.7,973.6 -20.8,933.2 -55.6,915.3 	"/>
</g>
<circle class="st0" cx="616.9" cy="997.3" r="245.6"/>
<g>
	<g>
		<g>
			<polygon class="st7" points="511.3,1056.9 784.6,848.3 554.5,1088 553.8,1141 			"/>
		</g>
	</g>
	<polygon class="st8" points="553.8,1141 589.4,1105.9 554.5,1088 	"/>
	<polygon class="st4" points="449.3,1015.4 784.6,848.3 511.3,1056.9 	"/>
	<polygon class="st4" points="784.6,848.3 667.9,1146.3 589.4,1105.9 554.5,1088 	"/>
</g>
<image style="overflow:visible;" width="987" height="621" xlink:href="5569A736.jpg"  transform="matrix(1 0 0 1 -7894 -7770.1099)">
</image>
<polygon class="st0" points="22.8,-450.9 146.6,-450.9 394.5,-698.8 "/>
<polygon class="st0" points="146.6,-327.1 146.6,-450.9 394.5,-698.8 "/>
</svg>
