<?xml version="1.0" encoding="UTF-8"?>
<svg id="Layer_2" data-name="Layer 2" xmlns="http://www.w3.org/2000/svg" viewBox="0 0 212.96 286.16">
  <defs>
    <style>
      .cls-1 {
        fill: #ebbab9;
      }
    </style>
  </defs>
  <g id="Layer_1-2" data-name="Layer 1">
    <path class="cls-1" d="m188.23,130.54c-1.64,0-3.01-1.27-3.14-2.9l-.03-.36c-.75-6.78,1.51-14.19,7.79-21.73,5.65-6.66,8.79-11.56,8.79-17.21,0-6.41-4.02-10.68-11.93-10.8-3.27,0-6.81.79-9.7,2.13-1.67.78-3.65.02-4.31-1.71l-.76-2c-.56-1.48.05-3.16,1.45-3.89,4.21-2.19,10.07-3.57,15.58-3.57,14.45,0,20.98,8.92,20.98,18.46,0,8.54-4.77,14.7-10.8,21.86-5.53,6.53-7.54,12.06-7.16,18.46h0c.07,1.78-1.36,3.27-3.14,3.27h-3.62Zm-5.61,16.44c.47-4.03,3.45-6.76,7.47-6.76,4.4,0,7.41,3.27,7.41,7.91,0,3.74-2.09,6.75-5.57,7.57-5.2,1.22-9.93-3.42-9.31-8.72Z"/>
    <path class="cls-1" d="m149.16,70.3c-.67,0-1.23-.52-1.28-1.19v-.15c-.32-2.77.6-5.8,3.17-8.87,2.31-2.72,3.59-4.72,3.59-7.03,0-2.62-1.64-4.36-4.87-4.41-1.34,0-2.78.32-3.96.87-.68.32-1.49,0-1.76-.7l-.31-.82c-.23-.6.02-1.29.59-1.59,1.72-.89,4.11-1.46,6.36-1.46,5.9,0,8.57,3.64,8.57,7.54,0,3.49-1.95,6-4.41,8.93-2.26,2.67-3.08,4.92-2.92,7.54h0c.03.73-.55,1.33-1.28,1.33h-1.48Zm-2.29,6.71c.19-1.64,1.41-2.76,3.05-2.76,1.8,0,3.03,1.33,3.03,3.23,0,1.53-.85,2.76-2.28,3.09-2.12.5-4.06-1.4-3.8-3.56Z"/>
    <path class="cls-1" d="m183.31,39.31c-1.04,0-1.91-.8-1.99-1.84l-.02-.23c-.48-4.3.95-8.99,4.93-13.77,3.58-4.22,5.57-7.32,5.57-10.9,0-4.06-2.55-6.76-7.56-6.84-2.07,0-4.31.5-6.15,1.35-1.06.49-2.31.01-2.73-1.08l-.48-1.27c-.36-.94.03-2,.92-2.47,2.66-1.39,6.38-2.26,9.87-2.26,9.15,0,13.29,5.65,13.29,11.7,0,5.41-3.02,9.31-6.84,13.85-3.5,4.14-4.78,7.64-4.54,11.7h0c.04,1.13-.86,2.07-1.99,2.07h-2.29Zm-3.55,10.41c.3-2.55,2.18-4.28,4.73-4.28,2.79,0,4.7,2.07,4.7,5.01,0,2.37-1.32,4.28-3.53,4.8-3.29.77-6.29-2.16-5.9-5.52Z"/>
    <path class="cls-1" d="m170.74,205.3c-.5-.14-1-.21-1.5-.21-2.4,0-4.6,1.58-5.29,4l-3.87,13.65-6.92,2.85c-.09-25.3-.03-50.61-.06-75.91,0-1.29.38-2.06,1.48-2.71,4.2-2.47,7.85-5.6,10.76-9.51,3.34-4.48,4.64-9.41,3-14.91-1.35-4.54-4.16-8.07-7.7-11.1-7.54-6.46-16.44-10.28-25.77-13.2-12.18-3.8-24.73-5.63-37.45-6.29-6.42-.34-12.86-.35-19.3-.11-7.36.27-14.64,1.1-21.85,2.57-10.82,2.21-21.16,5.72-30.43,11.91-4.28,2.85-8.18,6.12-10.88,10.61-3.75,6.23-4.12,12.59-.63,19.05,2.15,3.99,5.1,7.31,8.84,9.81,2.06,1.37,2.81,2.83,2.8,5.4-.14,22.39-.08,44.78-.08,67.17v1.93l-11.11-4.55-4-13.61c-.86-2.91-3.91-4.58-6.83-3.72-2.91.86-4.58,3.91-3.72,6.83l4.75,16.14c.47,1.6,1.65,2.91,3.19,3.54l17.72,7.26v7.62c0,2.27.55,4.35,2.15,6.07,1.79,1.91,4,2.72,6.58,2.72h19.02v15.86l-11.07,8.86c-2.37,1.9-2.76,5.36-.86,7.73,1.09,1.36,2.69,2.06,4.3,2.06,1.21,0,2.42-.39,3.43-1.21l13.14-10.51c1.3-1.04,2.06-2.62,2.06-4.29v-18.5h33.49v18.91l-11.07,8.86c-2.37,1.9-2.76,5.36-.86,7.73,1.09,1.36,2.68,2.06,4.3,2.06,1.21,0,2.42-.39,3.43-1.21l13.14-10.51c1.3-1.04,2.06-2.62,2.06-4.29v-21.55h0s6.12,0,6.12,0c9.51,0,19.03-.03,28.54,0,4.45.02,9.47-3.14,9.44-9.31v-1.74l13.53-5.7c1.54-.65,2.7-1.96,3.16-3.57l4.59-16.19h.02c.83-2.92-.87-5.96-3.79-6.79Zm-27.04-74.72c-1.94,3.52-5,5.94-8.2,8.22-1.08.77-2.18,1.53-3.32,2.2v.02c-1.04.62-1.43,1.42-1.43,2.65.03,21.89.02,43.79.02,65.68v25.55c0,.29-.04.58,0,.87.12,1.12-.32,1.5-1.48,1.49-8.93-.04-17.86-.02-26.8-.02h-63.56q-1.73,0-1.73-1.71v-45.99h.01c0-15.37-.01-30.74.02-46.11,0-1.18-.4-1.87-1.42-2.49-3.84-2.33-7.64-4.7-10.37-8.43-3.08-4.21-2.98-7.71.49-11.7,3.28-3.77,7.38-6.4,11.81-8.59,8.78-4.32,18.13-6.62,27.75-8.01,7.84-1.14,15.71-1.5,23.6-1.17,13.74.57,27.17,2.67,39.78,8.56,4.55,2.13,8.79,4.7,12.31,8.33,1.2,1.23,2.14,2.63,2.86,4.2,1.02,2.22.81,4.37-.34,6.45Z"/>
    <path class="cls-1" d="m99.02,193.58c-.96,0-1.76-.74-1.83-1.7l-.02-.21c-.44-3.96.88-8.29,4.55-12.69,3.3-3.89,5.14-6.75,5.14-10.05,0-3.74-2.35-6.24-6.97-6.31-1.91,0-3.98.46-5.67,1.24-.98.45-2.13.01-2.51-1l-.45-1.17c-.33-.87.04-1.86.87-2.29,2.45-1.27,5.87-2.07,9.08-2.07,8.44,0,12.25,5.21,12.25,10.79,0,4.99-2.79,8.58-6.31,12.77-3.23,3.82-4.4,7.04-4.18,10.79h0c.04,1.04-.79,1.91-1.84,1.91h-2.11Z"/>
    <path class="cls-1" d="m60.91,191.99c-1.18,0-2.16-.91-2.25-2.09l-.02-.26c-.54-4.87,1.08-10.2,5.6-15.61,4.06-4.78,6.32-8.3,6.32-12.36,0-4.6-2.89-7.67-8.57-7.76-2.37,0-4.94.58-7.03,1.56-1.18.55-2.57-.04-3.04-1.25l-.55-1.44c-.41-1.08.05-2.29,1.07-2.82,3.02-1.56,7.21-2.55,11.16-2.55,10.38,0,15.07,6.41,15.07,13.27,0,6.14-3.43,10.56-7.76,15.7-3.97,4.69-5.42,8.66-5.14,13.27h0c.05,1.28-.98,2.35-2.26,2.35h-2.6Z"/>
    <path class="cls-1" d="m63.93,195.61c-6.06,0-10.98,6.71-10.98,14.99s4.92,14.99,10.98,14.99,10.98-6.71,10.98-14.99-4.92-14.99-10.98-14.99Zm-4.31,13.76c-1.7,0-3.08-1.38-3.08-3.08s1.38-3.08,3.08-3.08,3.08,1.38,3.08,3.08-1.38,3.08-3.08,3.08Zm5.06-3.86c-.85,0-1.54-.69-1.54-1.54s.69-1.54,1.54-1.54,1.54.69,1.54,1.54-.69,1.54-1.54,1.54Z"/>
    <path class="cls-1" d="m99.8,195.61c-6.06,0-10.98,6.71-10.98,14.99s4.92,14.99,10.98,14.99,10.98-6.71,10.98-14.99-4.92-14.99-10.98-14.99Zm-4.31,13.76c-1.7,0-3.08-1.38-3.08-3.08s1.38-3.08,3.08-3.08,3.08,1.38,3.08,3.08-1.38,3.08-3.08,3.08Zm5.06-3.86c-.85,0-1.54-.69-1.54-1.54s.69-1.54,1.54-1.54,1.54.69,1.54,1.54-.69,1.54-1.54,1.54Z"/>
    <path class="cls-1" d="m81.34,225.3c.35,0,.7.03,1.04.07,3.96.56,6.01,4.19,6.1,4.35.53.97.18,2.18-.78,2.72-.96.53-2.17.19-2.71-.77-.03-.06-1.22-2.07-3.19-2.33-1.97-.27-4.07,1.36-5.48,2.77-.78.78-2.05.78-2.83,0s-.78-2.05,0-2.83c2.64-2.64,5.28-3.97,7.85-3.97h0Z"/>
  </g>
</svg>